# xmcd
#
# Track frame offsets: 
#        150
#        16795
#        30815
#        44721
#        60091
#        73286
#        87232
#        103013
#        122321
#        135853
#
# Disc length: 1968 seconds
#
# Revision: 0
# Processed by: cddbd v1.5.2PL0 Copyright (c) Steve Scherf et al.
# Submitted via: ExactAudioCopy v0.95b4
#
DISCID=7007ae0a
DTITLE=Holly Dunn - Cornestone
DYEAR=1987
DGENRE=Country
TTITLE0=Cornerstone
TTITLE1=Small Town (Are Smaller For Girls)
TTITLE2=Strangers Again
TTITLE3=Only When I Love
TTITLE4=Fewer Threads Than These
TTITLE5=Love Someone Like Me
TTITLE6=Lover's Cross
TTITLE7=Why Wyoming
TTITLE8=Wrap Me Up
TTITLE9=Little Frame House
EXTD=
EXTT0=
EXTT1=
EXTT2=
EXTT3=
EXTT4=
EXTT5=
EXTT6=
EXTT7=
EXTT8=
EXTT9=
PLAYORDER=
